<svg id="instagram" xmlns="http://www.w3.org/2000/svg" width="24" height="24" viewBox="0 0 24 24">
  <g id="Group_2907" data-name="Group 2907">
    <g id="Group_2906" data-name="Group 2906">
      <path id="Path_27" data-name="Path 27" d="M16.5,0h-9A7.5,7.5,0,0,0,0,7.5v9A7.5,7.5,0,0,0,7.5,24h9A7.5,7.5,0,0,0,24,16.5v-9A7.5,7.5,0,0,0,16.5,0Zm5.25,16.5a5.256,5.256,0,0,1-5.25,5.25h-9A5.256,5.256,0,0,1,2.25,16.5v-9A5.256,5.256,0,0,1,7.5,2.25h9A5.256,5.256,0,0,1,21.75,7.5Z" fill="#adadad"/>
    </g>
  </g>
  <g id="Group_2909" data-name="Group 2909" transform="translate(6 6)">
    <g id="Group_2908" data-name="Group 2908">
      <path id="Path_28" data-name="Path 28" d="M134,128a6,6,0,1,0,6,6A6,6,0,0,0,134,128Zm0,9.75a3.75,3.75,0,1,1,3.75-3.75A3.755,3.755,0,0,1,134,137.75Z" transform="translate(-128 -128)" fill="#adadad"/>
    </g>
  </g>
  <g id="Group_2911" data-name="Group 2911" transform="translate(17.65 4.751)">
    <g id="Group_2910" data-name="Group 2910">
      <circle id="Ellipse_3" data-name="Ellipse 3" cx="0.799" cy="0.799" r="0.799" fill="#adadad"/>
    </g>
  </g>
</svg>
