<svg xmlns="http://www.w3.org/2000/svg" width="169.8" height="29" viewBox="0 0 169.8 29">
  <g id="Logo_grey" data-name="Logo grey" transform="translate(0 -0.002)">
    <path id="fresh_fish" data-name="fresh fish" d="M12.08-.86V0H0V-.86H1.94V-13.98h9.32l-.02,2.2H4.3v3.84h6.2v2.18H4.3v4.9Zm15.06,0V0H22.82L19.48-4.7h-3.1V0h-4.3V-.86h1.94V-13.98h5.2q3.2,0,4.58,1.08a4.124,4.124,0,0,1,1.38,3.46q0,3.46-3.02,4.36L25.2-.86ZM19.32-6.84a4.324,4.324,0,0,0,2.72-.62,2.493,2.493,0,0,0,.72-1.99,2.128,2.128,0,0,0-.74-1.88,4.924,4.924,0,0,0-2.64-.51h-3v5ZM28.58-.86V-13.98H38.4v2.22H30.94v3.7h6.7v2.1h-6.7v3.74h7.7V-.86h1.94V0H26.64V-.86Zm23.74,0V0H39.72V-.86h2.56A8.073,8.073,0,0,1,40.52-2.1L42-3.88a6.663,6.663,0,0,0,4.4,1.84,3,3,0,0,0,1.81-.49,1.534,1.534,0,0,0,.67-1.3,1.46,1.46,0,0,0-.63-1.26,6.625,6.625,0,0,0-2.17-.82,19.517,19.517,0,0,1-2.34-.68,5.286,5.286,0,0,1-1.42-.81,3.382,3.382,0,0,1-1.24-2.88,3.506,3.506,0,0,1,1.41-2.99,5.68,5.68,0,0,1,3.49-1.05,8.364,8.364,0,0,1,2.66.44,6.954,6.954,0,0,1,2.28,1.24l-1.26,1.78a4.765,4.765,0,0,0-1.68-.92,6.472,6.472,0,0,0-2.09-.36,3.1,3.1,0,0,0-1.69.42,1.4,1.4,0,0,0-.66,1.27,1.477,1.477,0,0,0,.66,1.3,9.969,9.969,0,0,0,2.81.97,7.724,7.724,0,0,1,3.24,1.46,3.3,3.3,0,0,1,1.09,2.64A3.823,3.823,0,0,1,49.82-.86Zm15.54,0H65.92V-13.98H63.56v6.06H56.62v-6.06H54.26V0h2.36V-5.72h6.94V0h4.3Zm-13.6,0V0H52.32V-.86Zm19.08,0V0H67.86V-.86Zm12.08,0V0H73.34V-.86h1.94V-13.98H84.6l-.02,2.2H77.64v3.84h6.2v2.18h-6.2v4.9Zm1.94,0V-13.98h2.36V-.86h1.94V0H85.42V-.86Zm16.9,0V0H91.66V-.86h2.56A8.073,8.073,0,0,1,92.46-2.1l1.48-1.78a6.663,6.663,0,0,0,4.4,1.84,3,3,0,0,0,1.81-.49,1.534,1.534,0,0,0,.67-1.3,1.46,1.46,0,0,0-.63-1.26,6.625,6.625,0,0,0-2.17-.82,19.517,19.517,0,0,1-2.34-.68,5.286,5.286,0,0,1-1.42-.81,3.382,3.382,0,0,1-1.24-2.88,3.506,3.506,0,0,1,1.41-2.99,5.68,5.68,0,0,1,3.49-1.05,8.364,8.364,0,0,1,2.66.44,6.954,6.954,0,0,1,2.28,1.24l-1.26,1.78a4.765,4.765,0,0,0-1.68-.92,6.472,6.472,0,0,0-2.09-.36,3.1,3.1,0,0,0-1.69.42,1.4,1.4,0,0,0-.66,1.27,1.477,1.477,0,0,0,.66,1.3,9.969,9.969,0,0,0,2.81.97,7.724,7.724,0,0,1,3.24,1.46,3.3,3.3,0,0,1,1.09,2.64,3.823,3.823,0,0,1-1.52,3.22Zm15.54,0h-1.94V-13.98H115.5v6.06h-6.94v-6.06H106.2V0h2.36V-5.72h6.94V0h4.3Zm-13.6,0V0h-1.94V-.86Z" transform="translate(50 21)" fill="#adadad"/>
    <g id="prawn_1_" data-name="prawn(1)">
      <path id="Path_19" data-name="Path 19" d="M45.268,92H11.936a11.936,11.936,0,0,0,0,23.872H13.77A6.028,6.028,0,0,0,19.723,121h6.093v-1.761a6.01,6.01,0,0,0-2.256-4.693,6.01,6.01,0,0,0,2.256-4.693v-1.761H19.723a6.028,6.028,0,0,0-5.953,5.128h-.224a4.775,4.775,0,1,1,0-9.549H30.808a9.008,9.008,0,0,0,9-9V94.65H45.27ZM23.045,118.346H19.723a3.373,3.373,0,0,1-3.247-2.476H19.8a3.373,3.373,0,0,1,3.247,2.476Zm-3.321-7.6h3.321a3.373,3.373,0,0,1-3.247,2.476H16.476a3.373,3.373,0,0,1,3.247-2.476Zm1.85-16.091v6.366H17.329V94.65ZM2.683,104.689l3.747,1.63a7.407,7.407,0,0,0,.452,5.4,9.29,9.29,0,0,1-4.2-7.029Zm4.953-.737-4.755-2.069a9.3,9.3,0,0,1,3.413-5.316l2.893,5.869a7.488,7.488,0,0,0-1.55,1.516Zm3.939-2.668L8.61,95.267a9.236,9.236,0,0,1,3.326-.617h2.741v6.366h-1.13a7.4,7.4,0,0,0-1.971.268Zm25.577-6.613a6.352,6.352,0,0,1-6.345,6.345H24.225V94.65H37.153Z" transform="translate(0 -91.998)" fill="#adadad"/>
      <path id="Path_20" data-name="Path 20" d="M309.9,137.261a1.326,1.326,0,1,0-1.326-1.326A1.341,1.341,0,0,0,309.9,137.261Z" transform="translate(-281.292 -130.842)" fill="#adadad"/>
    </g>
  </g>
</svg>
