<svg xmlns="http://www.w3.org/2000/svg" width="24" height="24" viewBox="0 0 24 24">
  <g id="twitter" transform="translate(-1110 -1894)">
    <g id="_003-twitter" data-name="003-twitter" transform="translate(1110 1896.4)">
      <g id="Group_2913" data-name="Group 2913">
        <path id="Path_30" data-name="Path 30" d="M24,50.309a10.258,10.258,0,0,1-2.835.777,4.893,4.893,0,0,0,2.164-2.72,9.833,9.833,0,0,1-3.12,1.191A4.92,4.92,0,0,0,11.7,52.922a5.066,5.066,0,0,0,.114,1.122A13.927,13.927,0,0,1,1.671,48.9a4.922,4.922,0,0,0,1.512,6.576A4.859,4.859,0,0,1,.96,54.867v.054A4.943,4.943,0,0,0,4.9,59.756a4.911,4.911,0,0,1-1.29.162,4.351,4.351,0,0,1-.931-.084,4.967,4.967,0,0,0,4.6,3.427,9.886,9.886,0,0,1-6.1,2.1A9.217,9.217,0,0,1,0,65.292,13.852,13.852,0,0,0,7.548,67.5a13.907,13.907,0,0,0,14-14c0-.218-.007-.428-.018-.636A9.815,9.815,0,0,0,24,50.309Z" transform="translate(0 -48)" fill="#adadad"/>
      </g>
    </g>
    <rect id="Rectangle_47" data-name="Rectangle 47" width="24" height="24" transform="translate(1110 1894)" fill="none"/>
  </g>
</svg>
