<svg id="whatsapp" xmlns="http://www.w3.org/2000/svg" width="24" height="24" viewBox="0 0 24 24">
  <g id="Group_2912" data-name="Group 2912">
    <path id="Path_29" data-name="Path 29" d="M12,0H12A11.993,11.993,0,0,0,2.285,19.034l-1.5,4.458L5.4,22.017A12,12,0,1,0,12,0Zm6.983,16.946a3.386,3.386,0,0,1-2.355,1.693c-.627.133-1.446.24-4.2-.9-3.527-1.461-5.8-5.044-5.975-5.277a6.854,6.854,0,0,1-1.425-3.62,3.831,3.831,0,0,1,1.227-2.92,1.743,1.743,0,0,1,1.227-.431c.149,0,.282.008.4.014.353.015.53.036.762.593.29.7.995,2.419,1.079,2.6a.714.714,0,0,1,.051.649,2.074,2.074,0,0,1-.389.551c-.177.2-.345.36-.522.579-.162.19-.345.394-.141.747a10.651,10.651,0,0,0,1.947,2.42,8.822,8.822,0,0,0,2.814,1.735.759.759,0,0,0,.846-.133A14.519,14.519,0,0,0,15.269,14a.67.67,0,0,1,.861-.261c.324.113,2.038.96,2.391,1.135s.585.261.67.41A2.989,2.989,0,0,1,18.986,16.946Z" fill="#adadad"/>
  </g>
</svg>
