<svg xmlns="http://www.w3.org/2000/svg" width="24" height="24" viewBox="0 0 24 24">
  <g id="youtube" transform="translate(-1168 -1894)">
    <g id="_004-youtube" data-name="004-youtube" transform="translate(1168 1897.6)">
      <g id="Group_2914" data-name="Group 2914">
        <path id="Path_31" data-name="Path 31" d="M22.98,81.59c-.651-1.158-1.358-1.371-2.8-1.452C18.747,80.04,15.134,80,12,80s-6.752.04-8.187.137-2.144.294-2.8,1.453S0,84.739,0,88.245v.012c0,3.492.345,5.5,1.016,6.644s1.363,1.368,2.8,1.465S8.866,96.5,12,96.5s6.744-.049,8.182-.132c1.438-.1,2.145-.308,2.8-1.466C23.658,93.758,24,91.751,24,88.259v-.012C24,84.739,23.658,82.747,22.98,81.59ZM9,92.75v-9l7.5,4.5Z" transform="translate(0 -80)" fill="#adadad"/>
      </g>
    </g>
    <rect id="Rectangle_48" data-name="Rectangle 48" width="24" height="24" transform="translate(1168 1894)" fill="none"/>
  </g>
</svg>
